# xmcd
#
# Track frame offsets:
#	150
#	23579
#	37753
#	55035
#	72423
#	89597
#	108948
#	128988
#	143126
#	153390
#	166785
#	178620
#	194711
#	215651
#
# Disc length: 3131 seconds
#
# Revision: 0
# Processed by: cddbd v1.4PL0 Copyright (c) Steve Scherf et al.
# Submitted via: dBpowerAMP V4.0
#
DISCID=c00c390e
DTITLE=Fever - Now We Are Three
DYEAR=1900
DGENRE=Country
TTITLE0=The Thunder Rolls
TTITLE1=Coupe De Ville
TTITLE2=Honky Tonk Attitude
TTITLE3=Who Do You Know In California
TTITLE4=Steamy Windows
TTITLE5=I Hear Neon Angels Sing
TTITLE6=That's What You Get
TTITLE7=Silk Dresses And Muddy Boots
TTITLE8=Old Dogs
TTITLE9=Third Rock From The Sun
TTITLE10=Hurry Over
TTITLE11=Operator/Operator
TTITLE12=Indian Reservation
TTITLE13=This Cowboys Hat
EXTD=
EXTT0=
EXTT1=
EXTT2=
EXTT3=
EXTT4=
EXTT5=
EXTT6=
EXTT7=
EXTT8=
EXTT9=
EXTT10=
EXTT11=
EXTT12=
EXTT13=
PLAYORDER=
